# xmcd
#
# Track frame offsets:
#	150
#	12716
#	25122
#	38650
#	52190
#	62756
#	76259
#	87812
#	98258
#	109633
#
# Disc length: 1625 seconds
#
# Revision: 1
# Processed by: cddbd v1.5.2PL0 Copyright (c) Steve Scherf et al.
# Submitted via: audiograbber 1.83.01
#
DISCID=6e06570a
DTITLE=Porter Wagoner - Sing Some Love Songs
DYEAR=1975
DGENRE=Country
TTITLE0=Just For The Lonely Ones
TTITLE1=The Late Love Of Mine
TTITLE2=She's Everywhere
TTITLE3=The Last One To Touch Me
TTITLE4=Something To Reach For
TTITLE5=Love With Feeling
TTITLE6=This Night
TTITLE7=Love To Remember
TTITLE8=If I Cross Your Mind
TTITLE9=She Left Me Love
EXTD=
EXTT0=
EXTT1=
EXTT2=
EXTT3=
EXTT4=
EXTT5=
EXTT6=
EXTT7=
EXTT8=
EXTT9=
PLAYORDER=
